<svg xmlns="http://www.w3.org/2000/svg" viewBox="0 0 408.96 185.71"><defs><style>.cls-1,.cls-2{fill:#f2b447;}.cls-1,.cls-10,.cls-2,.cls-3,.cls-5,.cls-9{stroke:#000;stroke-miterlimit:10;}.cls-1{stroke-width:1.86px;}.cls-2{stroke-width:1.37px;}.cls-10,.cls-3,.cls-9{fill:#f8e4cc;}.cls-3{stroke-width:0.68px;}.cls-4{fill:#010101;}.cls-5{stroke-width:0.34px;}.cls-6{fill:none;}.cls-7{fill:#f2f2f2;}.cls-8{fill:#fff;}.cls-9{stroke-width:0.9px;}.cls-10{stroke-width:0.68px;}</style></defs><g id="Camada_2" data-name="Camada 2"><g id="Camada_1-2" data-name="Camada 1"><path class="cls-1" d="M209.43,143.09l3.24.54L217.24,181l-12.94-.89Z"/><path class="cls-1" d="M235.47,136.11l3.07-1.15L261.19,165l-11.65,5.7Z"/><path class="cls-1" d="M254.53,117.05l2.09-2.54,34.65,14.73L284,140Z"/><path class="cls-1" d="M261.51,91l.54-3.23,37.38-4.57q-.45,6.47-.89,12.93Z"/><path class="cls-1" d="M254.53,65l-1.15-3.07,30.09-22.65,5.69,11.65Z"/><path class="cls-1" d="M235.47,45.9l-2.53-2.09L247.67,9.16l10.76,7.24Q246.94,31.15,235.47,45.9Z"/><path class="cls-1" d="M209.43,38.92l-3.24-.54L201.62,1l12.94.9Z"/><path class="cls-1" d="M183.39,45.9l-3.08,1.15L157.67,17l11.65-5.7Z"/><path class="cls-1" d="M164.32,65l-2.08,2.54L127.58,52.77,134.82,42Z"/><path class="cls-1" d="M157.35,91l-.54,3.24-37.38,4.57q.45-6.47.89-12.94Z"/><path class="cls-1" d="M164.32,117.05l1.16,3.07-30.09,22.65-5.7-11.65Z"/><path class="cls-1" d="M183.39,136.11l2.53,2.08-14.73,34.66-10.76-7.24Z"/><circle class="cls-2" cx="209.43" cy="91.22" r="45"/><rect class="cls-3" x="189.67" y="70.75" width="14.94" height="26" rx="7.47"/><path class="cls-4" d="M199.73,95.24h-.61a5,5,0,0,1-2.9-.94,5.42,5.42,0,0,1-2-3.94v-.42c0-1.36,0-2.43,0-3.12l3.08-2.92-3.09-4.26a8.94,8.94,0,0,1,0-2.54,5.76,5.76,0,0,1,1.43-3.45,4.91,4.91,0,0,1,3.46-1.43h.61a4.88,4.88,0,0,1,4.88,4.88V90.36A4.87,4.87,0,0,1,199.73,95.24Z"/><rect class="cls-3" x="212.71" y="70.75" width="14.94" height="26" rx="7.47"/><path class="cls-4" d="M222.77,95.24h-.61a5,5,0,0,1-2.9-.94,5.47,5.47,0,0,1-2-3.94v-.42c0-1.36,0-2.43,0-3.12l3.08-2.92-3.09-4.26a8.94,8.94,0,0,1,0-2.54,5.76,5.76,0,0,1,1.43-3.45,4.91,4.91,0,0,1,3.46-1.43h.61a4.88,4.88,0,0,1,4.88,4.88V90.36A4.87,4.87,0,0,1,222.77,95.24Z"/><path class="cls-5" d="M229,104.53a.37.37,0,0,0-.52.14,2.8,2.8,0,0,1-1.8,1.32,2.72,2.72,0,0,1-2.12-.38,2.68,2.68,0,0,1-1.14-1.75,2.77,2.77,0,0,1,.44-2.11.39.39,0,0,0-.64-.44,3.57,3.57,0,0,0-.56,2.7,3.41,3.41,0,0,0,1.12,2,20.46,20.46,0,0,1-12.65,6.19c-8.62.8-14.61-4.44-16.32-6.14a3.47,3.47,0,0,0,1.22-2.38,3.59,3.59,0,0,0-.9-2.69.39.39,0,0,0-.55,0,.38.38,0,0,0,0,.54,2.81,2.81,0,0,1,.71,2.11,2.71,2.71,0,0,1-1,1.91,2.68,2.68,0,0,1-2,.56,2.79,2.79,0,0,1-1.88-1.06.39.39,0,0,0-.61.47,3.54,3.54,0,0,0,2.4,1.35,3.25,3.25,0,0,0,.44,0,3.36,3.36,0,0,0,1.56-.38A22.1,22.1,0,0,0,209.36,113c.59,0,1.2,0,1.83-.08a21.26,21.26,0,0,0,13.22-6.52,3.44,3.44,0,0,0,1.63.42,3.08,3.08,0,0,0,.8-.1,3.57,3.57,0,0,0,2.29-1.68A.37.37,0,0,0,229,104.53Z"/></g><g id="Camada_4" data-name="Camada 4"><path class="cls-6" d="M246.2,99.85h0Z"/><path class="cls-6" d="M344.51,96h0Z"/><path class="cls-6" d="M301.53,68c-.46,0-.92,0-1.38.06.78,0,1.55,0,2.33,0Z"/><path d="M408.77,151A33.09,33.09,0,0,0,381.24,122a37.82,37.82,0,0,0-12.12-19.5,38.4,38.4,0,0,0-24.61-8.75c-.64,0-1.26,0-1.86,0-2.76-5.57-13.77-24.78-35.55-27.74a41.36,41.36,0,0,0-5.57-.38c-19.61,0-37.91,13.65-45.25,33.46a34.09,34.09,0,0,0-10.2-1.58,31.13,31.13,0,0,0-12,2.38c-12.74,5.33-17.32,17.3-18.56,21.5-11.92,3.36-21,11.61-23.8,21.78-2.27,8.16-.48,17.45,4.91,25.49a40.57,40.57,0,0,0,22.28,16.13l.31.1h.32l111,.49,55.51.24h.38l.36-.12a33,33,0,0,0,22-34.64ZM301.53,68l1,0c-.78,0-1.55,0-2.33,0C300.61,68,301.07,68,301.53,68ZM402,170.77a30.57,30.57,0,0,1-16,12.69l-166.47-.73a38.2,38.2,0,0,1-21.05-15.24c-4.93-7.35-6.73-16-4.61-23.63,2.77-10,12.08-17.72,23.46-20.53.33-1.44,3.81-15.5,17.6-21.27a28.7,28.7,0,0,1,10.87-2.2H246a31.6,31.6,0,0,1,11.65,2.21C265,79.34,286.34,65.54,306.8,68.33c23.51,3.2,34,26.69,34.47,27.86.5,0,1.46-.12,2.74-.14h.7a34.94,34.94,0,0,1,34.69,28A30.56,30.56,0,0,1,402,170.77Z"/><path class="cls-7" d="M379.4,124.06a34.94,34.94,0,0,0-34.69-28H344c-1.28,0-2.24.09-2.74.14-.5-1.17-11-24.66-34.47-27.86-20.46-2.79-41.81,11-49.13,33.73A31.6,31.6,0,0,0,246,99.85h-.22a28.7,28.7,0,0,0-10.87,2.2c-13.79,5.77-17.27,19.83-17.6,21.27-11.38,2.81-20.69,10.53-23.46,20.53-2.12,7.63-.32,16.28,4.61,23.63a34.65,34.65,0,0,1,18.85-11.62c.33-1.44,3.81-15.51,17.6-21.27a30.57,30.57,0,0,1,22.74,0c7.32-22.73,28.67-36.52,49.13-33.73,23.51,3.2,34,26.69,34.47,27.86,2.45-.24,15.34-1.25,26.4,8.07a35.76,35.76,0,0,1,11.73,19.8A30.71,30.71,0,0,1,402,170.77a30.56,30.56,0,0,0-22.58-46.71Z"/><path class="cls-8" d="M379.4,156.6a35.76,35.76,0,0,0-11.73-19.8c-11.06-9.32-23.95-8.31-26.4-8.07-.5-1.17-11-24.66-34.47-27.86-20.46-2.79-41.81,11-49.13,33.73a30.57,30.57,0,0,0-22.74,0c-13.79,5.76-17.27,19.83-17.6,21.27a34.65,34.65,0,0,0-18.85,11.62,38.2,38.2,0,0,0,21.05,15.24l166.47.73a30.57,30.57,0,0,0,16-12.69A30.71,30.71,0,0,0,379.4,156.6Z"/><rect class="cls-9" x="280.51" y="108.85" width="19.76" height="34.39" rx="9.88"/><path class="cls-4" d="M293.81,141.25H293a6.56,6.56,0,0,1-3.83-1.26,7.12,7.12,0,0,1-2.63-5.2v-.55c0-1.8,0-3.21,0-4.14l4.07-3.86-4.09-5.63a12.08,12.08,0,0,1,0-3.35,7.58,7.58,0,0,1,1.89-4.57A6.45,6.45,0,0,1,293,110.8h.81a6.46,6.46,0,0,1,6.46,6.46v17.53A6.46,6.46,0,0,1,293.81,141.25Z"/><rect class="cls-9" x="313.36" y="108.85" width="19.76" height="34.39" rx="9.88"/><path class="cls-4" d="M326.66,141.25h-.81A6.56,6.56,0,0,1,322,140a7.12,7.12,0,0,1-2.63-5.2v-.55c0-1.8,0-3.21,0-4.14l4.07-3.86-4.09-5.63a12.08,12.08,0,0,1,0-3.35,7.58,7.58,0,0,1,1.89-4.57,6.45,6.45,0,0,1,4.57-1.89h.81a6.46,6.46,0,0,1,6.46,6.46v17.53A6.46,6.46,0,0,1,326.66,141.25Z"/><path d="M155.22,120.92a29.4,29.4,0,0,0-5.4-.5,31.66,31.66,0,0,0-7.31.87,42.55,42.55,0,0,0-5.61-24.74c-9-15-25.93-20.4-38.78-20.4V78.4c.54,0,1.09,0,1.64,0l.74,0c.85.05,1.71.11,2.58.2l.56.08c.68.08,1.37.16,2.06.27l1,.18c.56.1,1.12.2,1.68.33l1.09.26c.52.12,1,.25,1.57.4.38.1.75.22,1.13.34s1,.31,1.51.48.77.27,1.16.42l1.46.57,1.16.5q.7.32,1.41.66c.38.18.76.38,1.14.58s.92.5,1.38.76.74.43,1.11.66.89.57,1.33.87l1.06.73c.44.32.87.65,1.3,1s.67.53,1,.81.84.74,1.25,1.12.62.56.92.86.82.86,1.23,1.3.55.58.81.89c.43.51.84,1,1.25,1.58.21.27.43.53.63.81.6.83,1.18,1.7,1.72,2.6,6.62,11.06,5.56,22.47,5,26.66.52-.18,1.1-.35,1.72-.53l.52-.14q.84-.23,1.77-.42l.38-.08c.73-.14,1.51-.25,2.32-.34l.63-.06c.68-.06,1.38-.1,2.11-.11l.44,0H150c.51,0,1,0,1.54.07l.79,0c.8.08,1.61.18,2.44.34,13.54,2.54,28.14,16.17,26,32.86a29.09,29.09,0,0,1-12.28,19.84l-.27.17-.05,0a33.34,33.34,0,0,1-13.15,5.59H29.24a39.25,39.25,0,0,1-17.27-11A37.38,37.38,0,0,1,2,143.81c.56-12.67,7.74-23.13,17.09-29.4a38.94,38.94,0,0,1,9.9-4.92c.91-.3,1.82-.54,2.71-.76l.73-.17c.74-.16,1.47-.3,2.19-.41l.47-.08c.85-.13,1.69-.21,2.51-.28l.62,0c.65,0,1.29-.07,1.92-.07h.62c.68,0,1.35,0,2,.06h.09c.69,0,1.35.1,2,.17l.58.07c.46.05.9.11,1.33.18l.58.1c.45.07.89.15,1.31.24l.38.08c.53.11,1,.23,1.52.35l.33.09,1.05.28.41.12.83.26.32.1.72.25A51,51,0,0,1,73.32,86.1a44.5,44.5,0,0,1,22-7.61c.88-.06,1.78-.08,2.69-.09h.14V76.15c-1,0-2,0-3,.09C77.07,77.4,60.77,89.52,53.08,107.32a44.09,44.09,0,0,0-12.6-1.89,39.21,39.21,0,0,0-12.23,1.92C14.81,111.74.87,124.62,0,143.49A39.35,39.35,0,0,0,10.64,172,41.7,41.7,0,0,0,28.9,183.56l.32.1H155.64l.2,0a35.47,35.47,0,0,0,14-6,31.44,31.44,0,0,0,13.2-21.39C185.29,138.67,170.46,123.78,155.22,120.92Z"/><path class="cls-7" d="M180.52,156.21c2.1-16.7-12.49-30.32-26-32.86a29.27,29.27,0,0,0-14.88,1.24c.6-4.2,1.66-15.61-5-26.66C125.7,83,108.23,77.85,95,78.7a44.47,44.47,0,0,0-21.64,7.4,51.12,51.12,0,0,0-18.95,24l-.21-.07-.12.29a39.78,39.78,0,0,0-25.42-.62,38.48,38.48,0,0,0-9.57,4.7C9.86,120.7,2.84,131.07,2.29,143.59a37.29,37.29,0,0,0,9.48,26.23,29.5,29.5,0,0,1-.83-6.83,30,30,0,0,1,59.46-5.23A29.85,29.85,0,0,1,113,160.32,29.94,29.94,0,0,1,168.25,176l.05,0A29.08,29.08,0,0,0,180.52,156.21Z"/><path class="cls-8" d="M29.57,181.41H155.43A32.53,32.53,0,0,0,168.25,176,29.94,29.94,0,0,0,113,160.32a29.85,29.85,0,0,0-42.59-2.56A30,30,0,0,0,10.94,163a29.5,29.5,0,0,0,.83,6.83c.18.21.34.43.53.63A39.32,39.32,0,0,0,29.57,181.41Z"/><rect class="cls-10" x="88.16" y="117.02" width="14.82" height="25.79" rx="7.41" transform="translate(191.13 259.84) rotate(180)"/><path class="cls-4" d="M93,141.32h.6a4.87,4.87,0,0,0,2.87-.94,5.35,5.35,0,0,0,2-3.9v-.41c0-1.35,0-2.41,0-3.11l-3.06-2.89,3.07-4.22a8.8,8.8,0,0,0,0-2.52A5.66,5.66,0,0,0,97,119.91a4.83,4.83,0,0,0-3.43-1.42H93a4.85,4.85,0,0,0-4.85,4.84v13.15A4.85,4.85,0,0,0,93,141.32Z"/><rect class="cls-10" x="63.52" y="117.02" width="14.82" height="25.79" rx="7.41" transform="translate(141.85 259.84) rotate(-180)"/><path class="cls-4" d="M68.36,141.32H69a4.86,4.86,0,0,0,2.86-.94,5.35,5.35,0,0,0,2-3.9v-.41c0-1.35,0-2.41,0-3.11l-3-2.89,3.06-4.22a8.8,8.8,0,0,0,0-2.52,5.66,5.66,0,0,0-1.42-3.42A4.82,4.82,0,0,0,69,118.49h-.61a4.85,4.85,0,0,0-4.85,4.84v13.15A4.85,4.85,0,0,0,68.36,141.32Z"/></g></g></svg>