<svg xmlns="http://www.w3.org/2000/svg" viewBox="0 0 240.04 131.99"><defs><style>.cls-1{fill:none;}.cls-2{fill:#f2f2f2;}.cls-3{fill:#fff;}.cls-4{fill:#f8e4cc;stroke:#000;stroke-miterlimit:10;stroke-width:0.99px;}.cls-5{fill:#010101;}</style></defs><g id="Camada_2" data-name="Camada 2"><g id="Camada_4" data-name="Camada 4"><path class="cls-1" d="M179,37.54h0Z"/><path class="cls-1" d="M70.9,33.35h0Z"/><path class="cls-1" d="M118.17,2.48c.51,0,1,0,1.51.06-.85,0-1.7,0-2.55,0Z"/><path d="M5.58,116.87a36.31,36.31,0,0,0,18.87,15l.4.13h.41l61.06-.27,122.06-.54h.35l.34-.1a44.73,44.73,0,0,0,24.52-17.75c5.92-8.84,7.89-19.06,5.4-28-3.11-11.19-13.07-20.26-26.18-24-1.37-4.62-6.4-17.79-20.43-23.65a34.16,34.16,0,0,0-13.22-2.63,37.81,37.81,0,0,0-11.22,1.74C159.87,15,139.74,0,118.17,0A46.41,46.41,0,0,0,112,.41C88.09,3.68,76,24.8,72.94,30.93c-.67,0-1.34-.05-2-.05A42.26,42.26,0,0,0,43.82,40.5,41.54,41.54,0,0,0,30.49,62,36.09,36.09,0,0,0,5.58,116.87ZM119.68,2.54c-.85,0-1.7,0-2.55,0l1,0C118.68,2.48,119.18,2.52,119.68,2.54ZM2.67,94A33.79,33.79,0,0,1,32.51,64.17,38.42,38.42,0,0,1,70.67,33.36h.77c1.41,0,2.47.11,3,.16C75,32.23,86.51,6.39,112.37,2.87c22.51-3.07,46,12.11,54,37.1a34.87,34.87,0,0,1,12.81-2.42h.25a31.51,31.51,0,0,1,12,2.42c15.17,6.35,19,21.81,19.36,23.4C223.3,66.46,233.55,75,236.6,86c2.33,8.4.35,17.91-5.07,26a42,42,0,0,1-23.16,16.76l-183.12.8A33.79,33.79,0,0,1,2.67,94Z"/><path class="cls-2" d="M32.51,64.17A38.42,38.42,0,0,1,70.67,33.36h.77c1.41,0,2.47.11,3,.16C75,32.23,86.51,6.39,112.37,2.87c22.51-3.07,46,12.11,54,37.1a34.87,34.87,0,0,1,12.81-2.42h.25a31.51,31.51,0,0,1,12,2.42c15.17,6.35,19,21.81,19.36,23.4C223.3,66.46,233.55,75,236.6,86c2.33,8.4.35,17.91-5.07,26a38.11,38.11,0,0,0-20.74-12.79c-.36-1.58-4.19-17-19.36-23.39-12-5-22.76-.91-25,0-8-25-31.54-40.18-54-37.11C86.51,42.18,75,68,74.46,69.31c-2.69-.26-16.88-1.37-29,8.88A39.31,39.31,0,0,0,32.51,100,33.75,33.75,0,0,0,7.67,115.56,33.63,33.63,0,0,1,32.51,64.17Z"/><path class="cls-3" d="M32.51,100A39.31,39.31,0,0,1,45.42,78.19c12.16-10.25,26.35-9.14,29-8.88C75,68,86.51,42.18,112.37,38.66c22.51-3.07,46,12.11,54,37.11,2.25-.91,13.06-5,25,0,15.17,6.34,19,21.81,19.36,23.39A38.11,38.11,0,0,1,231.53,112a42,42,0,0,1-23.16,16.76l-183.12.8A33.67,33.67,0,0,1,7.67,115.56,33.75,33.75,0,0,1,32.51,100Z"/><rect class="cls-4" x="119.56" y="47.44" width="21.73" height="37.83" rx="10.87" transform="translate(260.86 132.72) rotate(180)"/><path class="cls-5" d="M126.66,83.08h.89a7.16,7.16,0,0,0,4.21-1.38,7.83,7.83,0,0,0,2.9-5.72v-.61c0-2,0-3.53,0-4.55l-4.48-4.24,4.5-6.2a13.35,13.35,0,0,0,0-3.69,8.38,8.38,0,0,0-2.08-5,7.09,7.09,0,0,0-5-2.08h-.89a7.1,7.1,0,0,0-7.1,7.1V76A7.1,7.1,0,0,0,126.66,83.08Z"/><rect class="cls-4" x="83.43" y="47.44" width="21.73" height="37.83" rx="10.87" transform="translate(188.59 132.72) rotate(180)"/><path class="cls-5" d="M90.52,83.08h.9a7.2,7.2,0,0,0,4.21-1.38A7.84,7.84,0,0,0,98.52,76v-.61c0-2,0-3.53,0-4.55L94,66.58l4.5-6.2a12.61,12.61,0,0,0,0-3.69,8.26,8.26,0,0,0-2.08-5,7.07,7.07,0,0,0-5-2.08h-.9a7.1,7.1,0,0,0-7.1,7.1V76A7.1,7.1,0,0,0,90.52,83.08Z"/></g></g></svg>