<svg xmlns="http://www.w3.org/2000/svg" viewBox="0 0 1366 768"><defs><style>.cls-1{isolation:isolate;}.cls-2{fill:#60b5e4;}.cls-3,.cls-4{fill:#f2b447;}.cls-11,.cls-12,.cls-13,.cls-21,.cls-3,.cls-4,.cls-5,.cls-7{stroke:#000;stroke-miterlimit:10;}.cls-3{stroke-width:1.86px;}.cls-4{stroke-width:1.37px;}.cls-11,.cls-12,.cls-13,.cls-21,.cls-5{fill:#f8e4cc;}.cls-5{stroke-width:0.68px;}.cls-6{fill:#010101;}.cls-7{stroke-width:0.34px;}.cls-8{fill:none;}.cls-9{fill:#f2f2f2;}.cls-10{fill:#fff;}.cls-11{stroke-width:0.9px;}.cls-12{stroke-width:0.99px;}.cls-13{stroke-width:0.68px;}.cls-14{fill:#6ab956;}.cls-15{fill:#36da4d;}.cls-16,.cls-18,.cls-19{fill:#49803b;}.cls-16,.cls-19{mix-blend-mode:darken;}.cls-16{opacity:0.96;}.cls-17{fill:#87b97a;}.cls-19{opacity:0.83;}.cls-20{fill:#473a20;}.cls-21{stroke-width:0.68px;}</style></defs><g class="cls-1"><g id="Camada_1" data-name="Camada 1"><rect class="cls-2" x="0.23" width="1365.77" height="769.02"/><path class="cls-3" d="M230.28,176.83l3.23.54,4.57,37.38-12.93-.89Z"/><path class="cls-3" d="M256.32,169.85l3.07-1.15L282,198.79l-11.65,5.69Z"/><path class="cls-3" d="M275.38,150.79l2.09-2.53L312.12,163l-7.24,10.76Z"/><path class="cls-3" d="M282.36,124.75l.54-3.24,37.38-4.57q-.45,6.48-.89,12.94Z"/><path class="cls-3" d="M275.38,98.71l-1.15-3.07L304.32,73,310,84.64Z"/><path class="cls-3" d="M256.32,79.65l-2.54-2.09L268.52,42.9l10.75,7.25Z"/><path class="cls-3" d="M230.28,72.67,227,72.13l-4.57-37.38,12.94.89Z"/><path class="cls-3" d="M204.24,79.65l-3.08,1.15L178.52,50.71,190.17,45Z"/><path class="cls-3" d="M185.17,98.71l-2.08,2.53L148.43,86.51l7.24-10.76Z"/><path class="cls-3" d="M178.2,124.75l-.54,3.24-37.38,4.57q.43-6.48.89-12.94Z"/><path class="cls-3" d="M185.17,150.79l1.15,3.07-30.08,22.65-5.7-11.65Z"/><path class="cls-3" d="M204.24,169.85l2.53,2.09L192,206.6l-10.76-7.25Z"/><circle class="cls-4" cx="230.28" cy="124.96" r="45"/><rect class="cls-5" x="210.52" y="104.49" width="14.94" height="26" rx="7.47"/><path class="cls-6" d="M220.58,129H220a5,5,0,0,1-2.89-1,5.39,5.39,0,0,1-2-3.93v-.42c0-1.36,0-2.43,0-3.13l3.08-2.92-3.09-4.25a8.94,8.94,0,0,1,0-2.54,5.7,5.7,0,0,1,1.43-3.45A4.86,4.86,0,0,1,220,106h.62a4.88,4.88,0,0,1,4.88,4.88v13.26A4.89,4.89,0,0,1,220.58,129Z"/><rect class="cls-5" x="233.56" y="104.49" width="14.94" height="26" rx="7.47"/><path class="cls-6" d="M243.62,129H243a5,5,0,0,1-2.9-1,5.39,5.39,0,0,1-2-3.93v-.42c0-1.36,0-2.43,0-3.13l3.08-2.92-3.09-4.25a8.94,8.94,0,0,1,0-2.54,5.7,5.7,0,0,1,1.43-3.45A4.87,4.87,0,0,1,243,106h.61a4.87,4.87,0,0,1,4.88,4.88v13.26A4.88,4.88,0,0,1,243.62,129Z"/><path class="cls-7" d="M249.84,138.27a.39.39,0,0,0-.52.14,2.79,2.79,0,0,1-1.8,1.32,2.71,2.71,0,0,1-2.12-.37,2.68,2.68,0,0,1-1.14-1.75,2.78,2.78,0,0,1,.43-2.12.38.38,0,1,0-.63-.43,3.56,3.56,0,0,0-.56,2.69,3.51,3.51,0,0,0,1.11,2A20.45,20.45,0,0,1,232,145.91c-8.62.79-14.61-4.44-16.32-6.14a3.51,3.51,0,0,0,1.22-2.39,3.59,3.59,0,0,0-.91-2.69.38.38,0,0,0-.54,0,.39.39,0,0,0,0,.55,2.73,2.73,0,1,1-4.18,3.51.39.39,0,0,0-.54-.06.38.38,0,0,0-.07.54,3.6,3.6,0,0,0,2.4,1.35l.44,0a3.48,3.48,0,0,0,1.56-.37,22.09,22.09,0,0,0,15.2,6.56c.6,0,1.21,0,1.84-.09a21.26,21.26,0,0,0,13.22-6.51,3.43,3.43,0,0,0,1.63.41A3.58,3.58,0,0,0,250,138.8.39.39,0,0,0,249.84,138.27Z"/></g><g id="Camada_4" data-name="Camada 4"><path class="cls-8" d="M267.05,133.6h0Z"/><path class="cls-8" d="M365.36,129.79h0Z"/><path class="cls-8" d="M322.38,101.72c-.46,0-.92,0-1.38.06.78,0,1.55,0,2.32,0Z"/><path d="M429.62,184.7a33.11,33.11,0,0,0-27.53-28.92A37.76,37.76,0,0,0,390,136.29a38.31,38.31,0,0,0-24.6-8.75c-.64,0-1.26,0-1.87,0C360.73,122,349.72,102.81,328,99.84a41.36,41.36,0,0,0-5.57-.37c-19.61,0-37.91,13.64-45.25,33.45a34.47,34.47,0,0,0-10.2-1.58,31,31,0,0,0-12,2.39c-12.75,5.33-17.32,17.3-18.57,21.5-11.91,3.35-21,11.6-23.79,21.77-2.27,8.16-.48,17.45,4.9,25.49a40.69,40.69,0,0,0,22.29,16.14l.31.09h.32l111,.49,55.51.25h.38l.36-.13a33,33,0,0,0,22-34.63Zm-107.24-83,.94,0c-.77,0-1.54,0-2.32,0C321.46,101.76,321.92,101.72,322.38,101.72Zm100.45,102.8a30.67,30.67,0,0,1-16,12.69l-166.47-.74a38.2,38.2,0,0,1-21.06-15.23c-4.93-7.36-6.73-16-4.61-23.63,2.78-10,12.09-17.72,23.47-20.54.33-1.44,3.8-15.5,17.6-21.26a28.53,28.53,0,0,1,10.87-2.21h.22a31.52,31.52,0,0,1,11.64,2.21c7.32-22.73,28.68-36.53,49.14-33.74,23.51,3.21,34,26.7,34.46,27.87.51-.05,1.47-.13,2.75-.15h.7a35,35,0,0,1,34.69,28,30.56,30.56,0,0,1,22.58,46.71Z"/><path class="cls-9" d="M400.25,157.81a35,35,0,0,0-34.69-28h-.7c-1.28,0-2.24.1-2.75.15-.49-1.17-10.95-24.66-34.46-27.87-20.46-2.79-41.82,11-49.14,33.74a31.52,31.52,0,0,0-11.64-2.21h-.22a28.53,28.53,0,0,0-10.87,2.21c-13.8,5.76-17.27,19.82-17.6,21.26-11.38,2.82-20.69,10.53-23.47,20.54-2.12,7.63-.32,16.27,4.61,23.63a34.67,34.67,0,0,1,18.86-11.63c.33-1.44,3.8-15.5,17.6-21.27a30.59,30.59,0,0,1,22.73,0c7.32-22.72,28.68-36.52,49.14-33.73,23.51,3.2,34,26.7,34.46,27.87,2.45-.24,15.35-1.25,26.4,8.06a35.73,35.73,0,0,1,11.74,19.8,30.69,30.69,0,0,1,22.58,14.18,30.56,30.56,0,0,0-22.58-46.71Z"/><path class="cls-10" d="M400.25,190.34a35.73,35.73,0,0,0-11.74-19.8c-11.05-9.31-23.95-8.3-26.4-8.06-.49-1.17-10.95-24.67-34.46-27.87-20.46-2.79-41.82,11-49.14,33.73a30.59,30.59,0,0,0-22.73,0c-13.8,5.77-17.27,19.83-17.6,21.27a34.67,34.67,0,0,0-18.86,11.63,38.2,38.2,0,0,0,21.06,15.23l166.47.74a30.67,30.67,0,0,0,16-12.69A30.69,30.69,0,0,0,400.25,190.34Z"/><rect class="cls-11" x="301.35" y="142.6" width="19.76" height="34.39" rx="9.88"/><path class="cls-6" d="M314.66,175h-.81a6.53,6.53,0,0,1-3.83-1.25,7.13,7.13,0,0,1-2.63-5.2V168c0-1.8,0-3.21,0-4.13l4.07-3.86-4.09-5.63a11.77,11.77,0,0,1,0-3.36,7.53,7.53,0,0,1,1.89-4.56,6.45,6.45,0,0,1,4.57-1.89h.81a6.46,6.46,0,0,1,6.46,6.45v17.54A6.46,6.46,0,0,1,314.66,175Z"/><rect class="cls-11" x="334.21" y="142.6" width="19.76" height="34.39" rx="9.88"/><path class="cls-6" d="M347.51,175h-.81a6.53,6.53,0,0,1-3.83-1.25,7.13,7.13,0,0,1-2.63-5.2V168c0-1.8,0-3.21,0-4.13l4.07-3.86-4.09-5.63a12.15,12.15,0,0,1,0-3.36,7.53,7.53,0,0,1,1.89-4.56,6.45,6.45,0,0,1,4.57-1.89h.81A6.46,6.46,0,0,1,354,151v17.54A6.46,6.46,0,0,1,347.51,175Z"/><path class="cls-8" d="M1072.34,131h.14l.31,0h-.45Z"/><path class="cls-8" d="M964.21,126.82h0Z"/><path class="cls-8" d="M1011.49,95.94c.5,0,1,0,1.51.07-.85,0-1.7-.05-2.56,0C1010.79,96,1011.14,95.94,1011.49,95.94Z"/><path d="M898.89,210.34a36.31,36.31,0,0,0,18.88,15l.39.14h.42l61.06-.27,122.05-.54h.36l.34-.1a44.71,44.71,0,0,0,24.51-17.75c5.92-8.85,7.89-19.07,5.4-28-3.11-11.19-13.07-20.26-26.18-23.95-1.37-4.63-6.4-17.79-20.42-23.65a34,34,0,0,0-13.22-2.63,37.44,37.44,0,0,0-11.22,1.74c-8.07-21.79-28.2-36.81-49.77-36.8a46.56,46.56,0,0,0-6.14.41c-23.94,3.26-36.06,24.39-39.09,30.51-.67,0-1.35,0-2,0A42.18,42.18,0,0,0,937.14,134a41.5,41.5,0,0,0-13.33,21.45,36.09,36.09,0,0,0-24.92,54.92ZM1013,96c-.85,0-1.7-.05-2.56,0,.35,0,.7,0,1,0S1012.5,96,1013,96ZM896,187.49a33.79,33.79,0,0,1,29.85-29.85A38.44,38.44,0,0,1,964,126.82h.77c1.4,0,2.46.1,3,.16.54-1.29,12.05-27.13,37.91-30.66,22.5-3.06,46,12.11,54,37.11a34.73,34.73,0,0,1,12.8-2.43h-.06l.31,0a31.51,31.51,0,0,1,12,2.42c15.18,6.34,19,21.81,19.36,23.39,12.52,3.1,22.76,11.59,25.82,22.59,2.33,8.4.35,17.9-5.07,26a42.11,42.11,0,0,1-23.17,16.75L918.57,223A33.83,33.83,0,0,1,896,187.49Z"/><path class="cls-9" d="M925.83,157.64A38.44,38.44,0,0,1,964,126.82h.77c1.4,0,2.46.1,3,.16.54-1.29,12.05-27.13,37.91-30.66,22.5-3.06,46,12.11,54,37.11a34.73,34.73,0,0,1,12.8-2.43h.25a31.51,31.51,0,0,1,12,2.42c15.18,6.34,19,21.81,19.36,23.39,12.52,3.1,22.76,11.59,25.82,22.59,2.33,8.4.35,17.9-5.07,26a38.08,38.08,0,0,0-20.75-12.79c-.36-1.59-4.18-17.06-19.36-23.4-12-5-22.75-.91-25,0-8.06-25-31.55-40.17-54-37.1-25.86,3.52-37.37,29.36-37.91,30.65-2.7-.26-16.89-1.38-29,8.87a39.31,39.31,0,0,0-12.91,21.78A33.77,33.77,0,0,0,901,209a33.61,33.61,0,0,1,24.84-51.38Z"/><path class="cls-10" d="M925.83,193.43a39.31,39.31,0,0,1,12.91-21.78c12.15-10.25,26.34-9.13,29-8.87.54-1.29,12.05-27.13,37.91-30.65,22.5-3.07,46,12.11,54,37.1,2.25-.91,13-5,25,0,15.18,6.34,19,21.81,19.36,23.4a38.08,38.08,0,0,1,20.75,12.79,42.11,42.11,0,0,1-23.17,16.75L918.57,223A33.6,33.6,0,0,1,901,209,33.77,33.77,0,0,1,925.83,193.43Z"/><rect class="cls-12" x="1012.88" y="140.91" width="21.73" height="37.83" rx="10.87" transform="translate(2047.49 319.65) rotate(180)"/><path class="cls-6" d="M1020,176.55h.89a7.28,7.28,0,0,0,4.21-1.38,7.84,7.84,0,0,0,2.89-5.73s0-.23,0-.6c0-2,0-3.54,0-4.55l-4.48-4.25,4.5-6.19a12.61,12.61,0,0,0,0-3.69,8.24,8.24,0,0,0-2.08-5,7,7,0,0,0-5-2.08H1020a7.1,7.1,0,0,0-7.11,7.1v19.28A7.11,7.11,0,0,0,1020,176.55Z"/><rect class="cls-12" x="976.74" y="140.91" width="21.73" height="37.83" rx="10.87" transform="translate(1975.22 319.65) rotate(180)"/><path class="cls-6" d="M983.84,176.55h.89a7.26,7.26,0,0,0,4.21-1.38,7.91,7.91,0,0,0,2.9-5.73v-.6c0-2,0-3.54,0-4.55L987.36,160l4.5-6.19a13.36,13.36,0,0,0,0-3.69,8.31,8.31,0,0,0-2.09-5,7,7,0,0,0-5-2.08h-.89a7.1,7.1,0,0,0-7.1,7.1v19.28A7.1,7.1,0,0,0,983.84,176.55Z"/><path d="M176.07,154.66a29.4,29.4,0,0,0-5.4-.5,32.22,32.22,0,0,0-7.31.87,42.53,42.53,0,0,0-5.61-24.73c-9-15-25.93-20.4-38.78-20.41v2.25c.54,0,1.09,0,1.64,0,.24,0,.49,0,.74,0,.85,0,1.71.11,2.58.2l.56.07c.68.08,1.37.17,2.06.28l1,.18c.56.1,1.12.2,1.68.32l1.08.26,1.57.4,1.14.34c.51.16,1,.31,1.51.48l1.16.42c.48.19,1,.37,1.45.57l1.16.5c.48.22.95.43,1.42.66l1.14.58c.46.25.92.5,1.38.77l1.11.65c.45.28.89.58,1.33.87s.71.49,1.06.74.87.65,1.3,1,.67.52,1,.8.84.74,1.25,1.13.62.56.92.86.82.86,1.23,1.3.55.58.81.88c.43.51.84,1.05,1.25,1.59.21.27.43.52.63.81.6.83,1.18,1.69,1.72,2.6,6.61,11,5.56,22.46,5,26.66.51-.18,1.1-.36,1.72-.53l.51-.14c.56-.15,1.16-.29,1.78-.42l.37-.08c.74-.14,1.52-.25,2.33-.35l.63,0c.68-.06,1.38-.1,2.11-.11.15,0,.28,0,.44,0h.22c.5,0,1,0,1.54.07.26,0,.52,0,.79,0a23.81,23.81,0,0,1,2.44.34c13.54,2.54,28.13,16.17,26,32.86a29.09,29.09,0,0,1-12.28,19.83l-.27.17-.06,0A33,33,0,0,1,176,215.37H50.09a39.23,39.23,0,0,1-17.27-11,37.4,37.4,0,0,1-10-26.86c.56-12.67,7.74-23.12,17.09-29.4a38.85,38.85,0,0,1,9.89-4.91c.92-.3,1.83-.55,2.72-.76l.73-.17q1.11-.24,2.19-.42l.47-.08c.85-.12,1.69-.21,2.51-.27l.61,0c.66,0,1.3-.06,1.93-.07h.61q1,0,2,.06h.09c.68,0,1.35.1,2,.17l.58.07,1.32.19.59.09,1.31.25.37.07c.54.11,1.05.23,1.53.35l.33.09,1,.29.41.12.83.26.32.1.72.24a51,51,0,0,1,19.16-23.93,44.41,44.41,0,0,1,22-7.62c.88,0,1.78-.08,2.69-.08H119v-2.25c-1,0-2,0-3,.1-18.07,1.16-34.37,13.28-42.06,31.07a44.09,44.09,0,0,0-12.6-1.89A39.22,39.22,0,0,0,49.1,141.1c-13.44,4.39-27.38,17.27-28.21,36.14a39.37,39.37,0,0,0,10.6,28.48,41.73,41.73,0,0,0,18.26,11.59l.32.1H176.49l.2,0a35.45,35.45,0,0,0,14-6A31.42,31.42,0,0,0,203.93,190C206.14,172.41,191.31,157.52,176.07,154.66Z"/><path class="cls-9" d="M201.37,190c2.1-16.69-12.49-30.32-26-32.86a29.38,29.38,0,0,0-14.88,1.24c.6-4.19,1.66-15.6-5-26.66-8.94-14.95-26.41-20.07-39.68-19.22a44.37,44.37,0,0,0-21.64,7.4,51,51,0,0,0-19,24l-.21-.07-.12.28a39.78,39.78,0,0,0-25.42-.62,39.19,39.19,0,0,0-9.57,4.7c-9.19,6.3-16.21,16.66-16.77,29.19a37.3,37.3,0,0,0,9.49,26.23,29.56,29.56,0,0,1-.83-6.83,30,30,0,0,1,59.46-5.24,29.87,29.87,0,0,1,42.59,2.56,29.94,29.94,0,0,1,55.25,15.72l.06,0A29,29,0,0,0,201.37,190Z"/><path class="cls-10" d="M50.41,215.16H176.28a33,33,0,0,0,7-2.13,32.31,32.31,0,0,0,5.82-3.25,29.94,29.94,0,0,0-55.25-15.72,29.87,29.87,0,0,0-42.59-2.56,30,30,0,0,0-59.46,5.24,29.56,29.56,0,0,0,.83,6.83c.18.2.34.42.53.62A39.27,39.27,0,0,0,50.41,215.16Z"/><rect class="cls-13" x="109.01" y="150.77" width="14.82" height="25.79" rx="7.41" transform="translate(232.83 327.33) rotate(180)"/><path class="cls-6" d="M113.84,175.07h.61a5,5,0,0,0,2.87-.94,5.4,5.4,0,0,0,2-3.9v-3.52l-3.06-2.89,3.07-4.23a8.73,8.73,0,0,0,0-2.51,5.66,5.66,0,0,0-1.42-3.43,4.87,4.87,0,0,0-3.43-1.42h-.61a4.85,4.85,0,0,0-4.84,4.85v13.15A4.84,4.84,0,0,0,113.84,175.07Z"/><rect class="cls-13" x="84.37" y="150.77" width="14.82" height="25.79" rx="7.41" transform="translate(183.55 327.33) rotate(-180)"/><path class="cls-6" d="M89.21,175.07h.6a4.94,4.94,0,0,0,2.87-.94,5.36,5.36,0,0,0,2-3.9v-.42c0-1.35,0-2.41,0-3.1l-3.06-2.89,3.07-4.23a8.73,8.73,0,0,0,0-2.51,5.66,5.66,0,0,0-1.42-3.43,4.87,4.87,0,0,0-3.43-1.42h-.6a4.85,4.85,0,0,0-4.85,4.85v13.15A4.85,4.85,0,0,0,89.21,175.07Z"/></g><g id="Camada_3" data-name="Camada 3"><rect class="cls-14" y="553.02" width="1366" height="216"/><path class="cls-15" d="M858.64,566.23c-35.77-16.59-57.49,14.58-119.52,10.08-19.78-1.44-34.2-5.82-38.88,1.44-4.93,7.62,3.38,24.19,14.4,34.56,24.67,23.23,51.78,4.88,87.84,24.48,26.47,14.39,19.32,28.34,44.64,41.76,31.13,16.5,78.63,14.83,105.12-13,13.28-13.94,26.14-39.56,17.28-53.28-10.6-16.4-42,0-80.64-21.6C868.83,579.51,874.92,573.78,858.64,566.23Z"/><path class="cls-16" d="M334,555.08c6.8,6.24,14.88,15.85,14.6,27.36-.37,15.12-15.75,23.31-31.68,37.44-31.37,27.82-71,67.91-92.16,89.28-17.48,17.67-31.43,32.76-40.32,28.8-9.11-4.06-6.82-25.41-11.52-25.92-3-.33-5.8,8.81-14.4,34.56-3.14,9.4-5.69,16.95-7.2,21.4L0,769,1.35,562.23Z"/><path d="M334,545.19,274.07,424.4l-.69-1.39-30.8-62.08a19.72,19.72,0,0,0-35.32,0l-1.32,2.68-2.19-4.34-30.76-62-.56-1.14h0l-26.19-52.77a30.6,30.6,0,0,0-54.82,0L-56.21,540.9a30.5,30.5,0,0,0,0,27.15l-.05,0,1,1.7,1,1.77.05,0A30.28,30.28,0,0,0-28.8,585.1H1.31l-4.75,9.57a19.71,19.71,0,0,0,17.66,28.47H197.08A19.7,19.7,0,0,0,215.32,596c1.5-2.08,1.72-5.63.7-10.88h50.44a30.28,30.28,0,0,0,23.83-11.44h26.06A19.71,19.71,0,0,0,334,545.19Zm-17.66,26.47h-27a28.28,28.28,0,0,1-22.86,11.44H213.53c1.52,6.25,1.67,10.94-.59,12.46a17.71,17.71,0,0,1-15.86,25.58H14.22A17.71,17.71,0,0,1-1.65,595.56l5.52-11.12a13.68,13.68,0,0,1-1-1.34H-28.8a28.37,28.37,0,0,1-24.76-14.32,28.32,28.32,0,0,1-.86-27L93.22,244.27c10.51-21.18,40.72-21.18,51.23,0l26.75,53.91,30.76,62,4,7.91,3.11-6.26a17.71,17.71,0,0,1,31.73,0l30.8,62.08,60.62,122.18A17.7,17.7,0,0,1,316.35,571.66Z"/><path class="cls-14" d="M7.7,539.78c12.65-39.43,27-41.14,46.44-83.16,14-30.28,15.48-48.63,32.4-55.08,6.89-2.62,17.93-3.88,25.86,1.24h0a17.4,17.4,0,0,1,9.1,8.52l29.2,58.84c7.06-31.63,10.8-47.78,14.94-54.29,10-15.67,21.37-21.78,21.33-36.18,0-4-.93-10.6,3.24-15.12,3.19-3.45,8-4.26,11.74-4.38h0l-30.76-62c-11.16.28-18.66-1.27-25.88,5.1-5.91,5.22-7,11.7-8.1,17.91a9.84,9.84,0,0,1,7.62-3.6h0a9.84,9.84,0,0,1,7.33,3.28,6.43,6.43,0,0,1,2.56,5.13v17.53a6.45,6.45,0,0,1-2.44,5.05,9.84,9.84,0,0,1-7.45,3.4h0a9.88,9.88,0,0,1-9.88-9.87V330.53a15.7,15.7,0,0,1-5.84,7.31,15.31,15.31,0,0,1-7.25,2.67v3a6.44,6.44,0,0,1-2.43,5.05,9.87,9.87,0,0,1-17.33-6.47v-4.65a27.64,27.64,0,0,0-9.71.38c-21.63,5-22.35,35.79-43.2,76.68C22.43,467,2.14,458.37-26.4,515c-14,27.79-18.58,48.62-27.16,53.82A28.37,28.37,0,0,0-28.8,583.1H2.91C-3.12,573.54,2.16,557.06,7.7,539.78Z"/><path class="cls-14" d="M213.53,583.1h52.93a28.28,28.28,0,0,0,22.86-11.44H210A110,110,0,0,1,213.53,583.1Z"/><path class="cls-17" d="M-26.4,515C2.14,458.37,22.43,467,49.2,414.52c20.85-40.89,21.57-71.7,43.2-76.68a27.64,27.64,0,0,1,9.71-.38v-10a9.86,9.86,0,0,1,17.21-6.6,6.42,6.42,0,0,1,2.55,5.13v14.51a15.31,15.31,0,0,0,7.25-2.67,15.7,15.7,0,0,0,5.84-7.31v-3.06a9.81,9.81,0,0,1,2.26-6.28c1.05-6.21,2.19-12.69,8.1-17.91,7.22-6.37,14.72-4.82,25.88-5.1l-26.75-53.91c-10.51-21.18-40.72-21.18-51.23,0L-54.42,541.79a28.32,28.32,0,0,0,.86,27C-45,563.58-40.42,542.75-26.4,515Z"/><path class="cls-18" d="M75.5,440.08,89.78,411.3a17.71,17.71,0,0,1,22.63-8.52h0c-7.93-5.12-19-3.86-25.86-1.24-16.92,6.45-18.38,24.8-32.4,55.08-19.45,42-33.79,43.73-46.44,83.16C2.16,557.06-3.12,573.54,2.91,583.1a13.68,13.68,0,0,0,1,1.34Z"/><path class="cls-18" d="M190.22,364.55c-4.17,4.52-3.25,11.08-3.24,15.12,0,14.4-11.36,20.51-21.33,36.18-4.14,6.51-7.88,22.66-14.94,54.29l1.44,2.91a2.9,2.9,0,0,1,1.73,0l20.61-41.53L206,368.08l-4-7.91h0C198.24,360.29,193.41,361.1,190.22,364.55Z"/><path class="cls-14" d="M332.21,546.08,271.59,423.9c-4.2,3.66-9,6.66-13.67,7.88v9.34a6.47,6.47,0,0,1-2.43,5.05,9.86,9.86,0,0,1-7.45,3.4h0a9.88,9.88,0,0,1-9.88-9.88V425.06a9.82,9.82,0,0,1,1.29-4.88c-2.77-6.47-4.72-13.29-10.35-14.32-4.85-.89-8.3,3.27-13.12,8.47l-.79.85a9.86,9.86,0,0,1,7.33,3.27,6.44,6.44,0,0,1,2.55,5.14v17.53a6.47,6.47,0,0,1-2.43,5.05,9.87,9.87,0,0,1-17.33-6.48V425.06a9.74,9.74,0,0,1,.08-1.22,40.87,40.87,0,0,1-6.53,3.62,52.92,52.92,0,0,1-24.37,4L153.88,473c9.32,2.35,29.18,41,36.88,56,2.24,4.35,12.91,25.32,19.21,42.68H316.35A17.7,17.7,0,0,0,332.21,546.08Z"/><path class="cls-17" d="M174.49,431.48a52.92,52.92,0,0,0,24.37-4,40.87,40.87,0,0,0,6.53-3.62,9.87,9.87,0,0,1,9.8-8.66h0l.79-.85c4.82-5.2,8.27-9.36,13.12-8.47,5.63,1,7.58,7.85,10.35,14.32a9.89,9.89,0,0,1,8.59-5h0a9.86,9.86,0,0,1,7.33,3.27,6.44,6.44,0,0,1,2.55,5.14v8.19c4.69-1.22,9.47-4.22,13.67-7.88l-30.8-62.08a17.71,17.71,0,0,0-31.73,0L206,368.08Z"/><path class="cls-18" d="M190.76,529c-7.7-15-27.56-53.62-36.88-56a2.9,2.9,0,0,0-1.73,0l60.79,122.51c2.26-1.52,2.11-6.21.59-12.46A110,110,0,0,0,210,571.66C203.67,554.3,193,533.33,190.76,529Z"/><path class="cls-14" d="M152.15,473.05a150.21,150.21,0,0,1-15.93.85c-16.9-.08-39.91-.18-52.92-17.28a47,47,0,0,1-7.8-16.54L3.87,584.44l-5.52,11.12a17.71,17.71,0,0,0,15.87,25.58H197.08a17.71,17.71,0,0,0,15.86-25.58Zm-37.59,23.53a9.88,9.88,0,0,1,9.88-9.88h0a9.86,9.86,0,0,1,7.33,3.27,6.44,6.44,0,0,1,2.55,5.14v17.53a6.45,6.45,0,0,1-2.43,5.05,9.84,9.84,0,0,1-7.45,3.4h0a9.88,9.88,0,0,1-9.88-9.88Zm-32.85,0A9.87,9.87,0,0,1,98.92,490a6.44,6.44,0,0,1,2.55,5.14v17.53A6.45,6.45,0,0,1,99,517.69a9.87,9.87,0,0,1-17.33-6.48Z"/><path class="cls-17" d="M121.51,411.3a17.4,17.4,0,0,0-9.1-8.52,17.71,17.71,0,0,0-22.63,8.52L75.5,440.08a47,47,0,0,0,7.8,16.54c13,17.1,36,17.2,52.92,17.28a150.21,150.21,0,0,0,15.93-.85l-1.44-2.91Z"/><path class="cls-11" d="M114.61,350a6.57,6.57,0,0,1-3.83-1.25,7.15,7.15,0,0,1-2.63-5.21s0-.21,0-.55c0-1.8,0-3.21,0-4.14l4.07-3.85-4.09-5.64a11.35,11.35,0,0,1,0-3.35,7.52,7.52,0,0,1,1.89-4.57,6.47,6.47,0,0,1,4.57-1.89h.81a6.38,6.38,0,0,1,3.9,1.33,9.86,9.86,0,0,0-17.21,6.6v14.64a9.87,9.87,0,0,0,17.33,6.47,6.42,6.42,0,0,1-4,1.41Z"/><path class="cls-6" d="M119.32,320.87a6.38,6.38,0,0,0-3.9-1.33h-.81a6.47,6.47,0,0,0-4.57,1.89,7.52,7.52,0,0,0-1.89,4.57,11.35,11.35,0,0,0,0,3.35l4.09,5.64-4.07,3.85c0,.93,0,2.34,0,4.14,0,.34,0,.51,0,.55a7.15,7.15,0,0,0,2.63,5.21,6.57,6.57,0,0,0,3.83,1.25h.81a6.46,6.46,0,0,0,6.45-6.46V326A6.42,6.42,0,0,0,119.32,320.87Z"/><path class="cls-11" d="M135,330.53v11.58a9.88,9.88,0,0,0,9.88,9.87h0a9.84,9.84,0,0,0,7.45-3.4,6.42,6.42,0,0,1-4,1.41h-.81a6.57,6.57,0,0,1-3.83-1.25,7.15,7.15,0,0,1-2.63-5.21V343c0-1.8,0-3.21,0-4.14l4.07-3.85L141,329.35a11.7,11.7,0,0,1,0-3.35,7.58,7.58,0,0,1,1.89-4.57,6.47,6.47,0,0,1,4.57-1.89h.81a6.38,6.38,0,0,1,3.9,1.33,9.84,9.84,0,0,0-7.33-3.28h0a9.89,9.89,0,0,0-9.88,9.88Z"/><path class="cls-6" d="M147.46,319.54a6.47,6.47,0,0,0-4.57,1.89A7.58,7.58,0,0,0,141,326a11.7,11.7,0,0,0,0,3.35l4.09,5.64L141,338.84c0,.93,0,2.34,0,4.14v.55a7.15,7.15,0,0,0,2.63,5.21,6.57,6.57,0,0,0,3.83,1.25h.81a6.47,6.47,0,0,0,6.46-6.46V326a6.5,6.5,0,0,0-6.46-6.46Z"/><path class="cls-11" d="M205.39,423.84a9.74,9.74,0,0,0-.08,1.22v14.63a9.87,9.87,0,0,0,17.33,6.48,6.45,6.45,0,0,1-4,1.41h-.81a6.51,6.51,0,0,1-3.82-1.26,7.08,7.08,0,0,1-2.63-5.2,5.44,5.44,0,0,1,0-.55c0-1.8,0-3.22,0-4.14l4.07-3.86q-2.05-2.81-4.09-5.63a11.35,11.35,0,0,1,0-3.35,7.52,7.52,0,0,1,1.89-4.57,6.42,6.42,0,0,1,4.56-1.89h.81a6.48,6.48,0,0,1,3.91,1.32,9.86,9.86,0,0,0-7.33-3.27h0A9.87,9.87,0,0,0,205.39,423.84Z"/><path class="cls-6" d="M217.8,417.13a6.42,6.42,0,0,0-4.56,1.89,7.52,7.52,0,0,0-1.89,4.57,11.35,11.35,0,0,0,0,3.35q2,2.82,4.09,5.63l-4.07,3.86c0,.92,0,2.34,0,4.14a5.44,5.44,0,0,0,0,.55,7.08,7.08,0,0,0,2.63,5.2,6.51,6.51,0,0,0,3.82,1.26h.81a6.46,6.46,0,0,0,6.46-6.46V423.59a6.46,6.46,0,0,0-6.46-6.46Z"/><path class="cls-11" d="M250.65,447.58a6.51,6.51,0,0,1-3.82-1.26,7.12,7.12,0,0,1-2.63-5.2,5.44,5.44,0,0,1,0-.55c0-1.8,0-3.22,0-4.14l4.07-3.86q-2.06-2.81-4.09-5.63a11.35,11.35,0,0,1,0-3.35,7.52,7.52,0,0,1,1.89-4.57,6.42,6.42,0,0,1,4.56-1.89h.82a6.48,6.48,0,0,1,3.9,1.32,9.86,9.86,0,0,0-7.33-3.27h0a9.88,9.88,0,0,0-9.88,9.88v14.63a9.88,9.88,0,0,0,9.88,9.88h0a9.86,9.86,0,0,0,7.45-3.4,6.44,6.44,0,0,1-4,1.41Z"/><path class="cls-6" d="M255.37,418.45a6.48,6.48,0,0,0-3.9-1.32h-.82a6.42,6.42,0,0,0-4.56,1.89,7.52,7.52,0,0,0-1.89,4.57,11.35,11.35,0,0,0,0,3.35q2,2.82,4.09,5.63l-4.07,3.86c0,.92,0,2.34,0,4.14a5.44,5.44,0,0,0,0,.55,7.12,7.12,0,0,0,2.63,5.2,6.51,6.51,0,0,0,3.82,1.26h.82a6.46,6.46,0,0,0,6.45-6.46V423.59A6.44,6.44,0,0,0,255.37,418.45Z"/><path class="cls-11" d="M91.59,521.09a9.84,9.84,0,0,0,7.45-3.4,6.42,6.42,0,0,1-4,1.41H94.2a6.51,6.51,0,0,1-3.82-1.26,7.12,7.12,0,0,1-2.63-5.2s0-.21,0-.55c0-1.8,0-3.21,0-4.14l4.07-3.85-4.09-5.64a11.35,11.35,0,0,1,0-3.35,7.52,7.52,0,0,1,1.89-4.57,6.47,6.47,0,0,1,4.56-1.89H95a6.43,6.43,0,0,1,3.9,1.32,9.87,9.87,0,0,0-17.21,6.61v14.63A9.88,9.88,0,0,0,91.59,521.09Z"/><path class="cls-6" d="M94.2,488.65a6.47,6.47,0,0,0-4.56,1.89,7.52,7.52,0,0,0-1.89,4.57,11.35,11.35,0,0,0,0,3.35l4.09,5.64L87.75,508c0,.93,0,2.34,0,4.14,0,.34,0,.51,0,.55a7.12,7.12,0,0,0,2.63,5.2,6.51,6.51,0,0,0,3.82,1.26H95a6.46,6.46,0,0,0,6.45-6.46V495.11A6.46,6.46,0,0,0,95,488.65Z"/><path class="cls-11" d="M124.44,521.09h0a9.84,9.84,0,0,0,7.45-3.4,6.42,6.42,0,0,1-4,1.41h-.81a6.52,6.52,0,0,1-3.83-1.26,7.12,7.12,0,0,1-2.63-5.2s0-.21,0-.55c0-1.8,0-3.21,0-4.14l4.07-3.85-4.09-5.64a11.35,11.35,0,0,1,0-3.35,7.52,7.52,0,0,1,1.89-4.57,6.47,6.47,0,0,1,4.57-1.89h.81a6.43,6.43,0,0,1,3.9,1.32,9.86,9.86,0,0,0-7.33-3.27h0a9.88,9.88,0,0,0-9.88,9.88v14.63A9.88,9.88,0,0,0,124.44,521.09Z"/><path class="cls-6" d="M127.06,488.65a6.47,6.47,0,0,0-4.57,1.89,7.52,7.52,0,0,0-1.89,4.57,11.35,11.35,0,0,0,0,3.35l4.09,5.64L120.6,508c0,.93,0,2.34,0,4.14,0,.34,0,.51,0,.55a7.12,7.12,0,0,0,2.63,5.2,6.52,6.52,0,0,0,3.83,1.26h.81a6.46,6.46,0,0,0,6.45-6.46V495.11a6.46,6.46,0,0,0-6.45-6.46Z"/><path class="cls-19" d="M335,579.2c-3.11,12.88,5.87,26.8,15.12,34.56,24.58,20.61,49.72-3.46,115.56,6.48,20.52,3.1,31.49,7.46,49.68,3.24,17.49-4.06,20.65-11.18,42.12-15.12,18.59-3.41,25,.3,34.56-5.4,9.7-5.81,22.4-19.38,18.36-33.48-3.84-13.41-20.11-18-21.6-18.36L380.32,553C356.62,553.64,338.44,564.77,335,579.2Z"/><path class="cls-19" d="M863.18,576c-3.33,12.7,6.34,27.31,16.58,36,28.53,24.28,60,1.32,155.08,21.23,34.18,7.15,53.51,14.7,87.3,12.56,34.72-2.2,41.26-11.51,87.83-13.34,43.73-1.72,59.74,5.16,84.15-1.82,26-7.42,61.68-27.44,50.1-51-10.83-21.95-54.67-29.51-58.52-30.14l-370.54.58C887.15,550.58,866.93,561.63,863.18,576Z"/></g><g id="Camada_5" data-name="Camada 5"><path d="M1385.91,481.31a22.57,22.57,0,0,0-18.68-22.17,21.58,21.58,0,0,0,.32-3.75,22.36,22.36,0,0,0-20-22.36,32.78,32.78,0,0,0-65.48.44,22.64,22.64,0,0,0-17.49,21.92,21.76,21.76,0,0,0,.15,2.54,23.58,23.58,0,0,0-9.7,38.29v0l.82.81,2.46,2.42.08-.29a23.39,23.39,0,0,0,14,4.64h29.87V556a12.82,12.82,0,0,0,12.8,12.8h7.2A12.82,12.82,0,0,0,1335,556v-52.2h31.13v-.19a22.48,22.48,0,0,0,17.73-13l.18.16.91-3.07h0l.36-1.19,0,0A22.57,22.57,0,0,0,1385.91,481.31Zm-2.84,5.84h0a20.55,20.55,0,0,1-18.91,14.65v0H1333V556a10.8,10.8,0,0,1-10.8,10.8H1315a10.81,10.81,0,0,1-10.8-10.8v-54.2h-31.87a21.54,21.54,0,0,1-15.14-6.2,21.63,21.63,0,0,1,1.52-4.05,21.63,21.63,0,0,0-1.52,4.05,21.57,21.57,0,0,1,9.72-36.28A20.46,20.46,0,0,1,1284,435.13v-.26a30.78,30.78,0,1,1,61.55,0v0a20.5,20.5,0,0,1,20,20.49,20.26,20.26,0,0,1-.76,5.48,20.49,20.49,0,0,1,19.12,20.44A20.82,20.82,0,0,1,1383.07,487.15Z"/><path d="M1272.7,480.23a20.61,20.61,0,0,1-.39-4A20.61,20.61,0,0,0,1272.7,480.23Z"/><path class="cls-20" d="M1304.23,556a10.81,10.81,0,0,0,10.8,10.8h7.2A10.8,10.8,0,0,0,1333,556v-54.2h-28.8Z"/><path class="cls-15" d="M1364.79,460.87a20.26,20.26,0,0,0,.76-5.48,20.5,20.5,0,0,0-20-20.49v0a30.78,30.78,0,1,0-61.55,0v.26a20.46,20.46,0,0,0-17.08,24.22,21.57,21.57,0,0,0-9.72,36.28,21.63,21.63,0,0,1,1.52-4.05c.21-.43.44-.85.68-1.26A20.65,20.65,0,0,1,1261,488a21,21,0,0,1,1.87-2.12,21.55,21.55,0,0,1,9.83-5.61,20.61,20.61,0,0,1-.39-4,20.31,20.31,0,0,1,2.93-10.54,19.39,19.39,0,0,1,2.1-2.89,21.49,21.49,0,0,1,2.57-2.48,19.86,19.86,0,0,1,3-2,20.35,20.35,0,0,1,6.9-2.34v-.26a30.67,30.67,0,0,1,9-21.76c.7-.7,1.43-1.36,2.19-2a30.83,30.83,0,0,1,27.27-6.06,31.35,31.35,0,0,1,4.29,1.45,31,31,0,0,1,11.77,8.79c.62.76,1.22,1.55,1.77,2.37a30.6,30.6,0,0,1,5.25,17.2v0a20.93,20.93,0,0,1,6,1,20.33,20.33,0,0,1,3.59,1.6,20.46,20.46,0,0,1,10.43,17.85,20,20,0,0,1-.19,2.8,20.27,20.27,0,0,1-.57,2.68,20.33,20.33,0,0,1,8.36,2.42,20.76,20.76,0,0,1,4.16,3,20.82,20.82,0,0,0,.84-5.84A20.49,20.49,0,0,0,1364.79,460.87Z"/><path class="cls-14" d="M1370.55,481.75a20.27,20.27,0,0,0,.57-2.68,20,20,0,0,0,.19-2.8,20.55,20.55,0,0,0-14-19.45,20.93,20.93,0,0,0-6-1v0a30.6,30.6,0,0,0-5.25-17.2c-.55-.82-1.15-1.61-1.77-2.37a31,31,0,0,0-11.77-8.79,31.35,31.35,0,0,0-4.29-1.45A30.7,30.7,0,0,0,1301,432c-.76.63-1.49,1.29-2.19,2a30.67,30.67,0,0,0-9,21.76V456a20.35,20.35,0,0,0-6.9,2.34,19.86,19.86,0,0,0-3,2,21.49,21.49,0,0,0-2.57,2.48,19.39,19.39,0,0,0-2.1,2.89,20.31,20.31,0,0,0-2.93,10.54,20.61,20.61,0,0,0,.39,4,21.55,21.55,0,0,0-9.83,5.61A21,21,0,0,0,1261,488a20.65,20.65,0,0,0-1.58,2.36c-.24.41-.47.83-.68,1.26a21.63,21.63,0,0,0-1.52,4.05,21.54,21.54,0,0,0,15.14,6.2h91.8v0a20.55,20.55,0,0,0,18.91-14.65h0a20.76,20.76,0,0,0-4.16-3A20.33,20.33,0,0,0,1370.55,481.75Zm-33.69.94a13.89,13.89,0,0,0,.43-3.37,13.7,13.7,0,1,0-27.4,0,14.24,14.24,0,0,0,.17,2.08,16.64,16.64,0,1,1,14.86-29.77,16.48,16.48,0,0,1,6.26-1.23,16.65,16.65,0,0,1,5.68,32.29Z"/><path class="cls-18" d="M1331.18,450.4a16.48,16.48,0,0,0-6.26,1.23,16.64,16.64,0,1,0-14.86,29.77,14.24,14.24,0,0,1-.17-2.08,13.7,13.7,0,1,1,27.4,0,13.89,13.89,0,0,1-.43,3.37,16.65,16.65,0,0,0-5.68-32.29Z"/><path d="M1241.64,478.54A22.57,22.57,0,0,0,1223,456.37a22.7,22.7,0,0,0,.32-3.75,22.35,22.35,0,0,0-20-22.36,32.78,32.78,0,0,0-65.48.43,22.66,22.66,0,0,0-17.49,21.93,21.76,21.76,0,0,0,.15,2.54,23.57,23.57,0,0,0-9.7,38.28v0l.83.82,2.46,2.42.08-.29a23.35,23.35,0,0,0,14,4.64H1158v52.19a12.81,12.81,0,0,0,12.8,12.8h7.2a12.81,12.81,0,0,0,12.8-12.8V501.06h31.13v-.19a22.51,22.51,0,0,0,17.73-13l.18.17.91-3.08h0l.35-1.19,0,0A22.49,22.49,0,0,0,1241.64,478.54Zm-2.85,5.83h0a20.51,20.51,0,0,1-18.9,14.65v0h-31.13v54.19a10.79,10.79,0,0,1-10.8,10.8h-7.2a10.8,10.8,0,0,1-10.8-10.8V499.06h-31.87a21.54,21.54,0,0,1-15.14-6.2,21,21,0,0,1,1.52-4.05,21,21,0,0,0-1.52,4.05,21.58,21.58,0,0,1,9.72-36.29,20.46,20.46,0,0,1,17.08-24.22c0-.08,0-.16,0-.25a30.78,30.78,0,1,1,61.56,0v0a20.44,20.44,0,0,1,19.22,26,20.49,20.49,0,0,1,18.27,26.28Z"/><path d="M1128.43,477.45a20.59,20.59,0,0,1-.39-3.95A20.59,20.59,0,0,0,1128.43,477.45Z"/><path class="cls-20" d="M1160,553.25a10.8,10.8,0,0,0,10.8,10.8h7.2a10.79,10.79,0,0,0,10.8-10.8V499.06H1160Z"/><path class="cls-15" d="M1220.52,458.09a20.44,20.44,0,0,0-19.22-26v0a30.78,30.78,0,1,0-61.56,0c0,.09,0,.17,0,.25a20.46,20.46,0,0,0-17.08,24.22,21.58,21.58,0,0,0-9.72,36.29,21,21,0,0,1,1.52-4.05c.21-.43.43-.85.67-1.26a22.14,22.14,0,0,1,1.59-2.36,21,21,0,0,1,1.87-2.13,21.73,21.73,0,0,1,9.83-5.61A20.43,20.43,0,0,1,1131,463a21.38,21.38,0,0,1,2.11-2.89,20.09,20.09,0,0,1,2.57-2.48,20.58,20.58,0,0,1,3-2,20.37,20.37,0,0,1,6.9-2.35c0-.08,0-.16,0-.25a30.68,30.68,0,0,1,9-21.76,29.39,29.39,0,0,1,2.18-2A30.76,30.76,0,0,1,1200,433.4a29.18,29.18,0,0,1,1.77,2.37,30.64,30.64,0,0,1,5.26,17.21v0a20.25,20.25,0,0,1,6,1,20.41,20.41,0,0,1,8.19,5.13A20.42,20.42,0,0,1,1227,473.5a19.7,19.7,0,0,1-.2,2.79,21.21,21.21,0,0,1-.56,2.68,20.43,20.43,0,0,1,8.36,2.43,20.76,20.76,0,0,1,4.15,3,20.49,20.49,0,0,0-18.27-26.28Z"/><path class="cls-14" d="M1226.28,479a21.21,21.21,0,0,0,.56-2.68,19.7,19.7,0,0,0,.2-2.79,20.42,20.42,0,0,0-5.83-14.32,20.41,20.41,0,0,0-8.19-5.13,20.25,20.25,0,0,0-6-1v0a30.64,30.64,0,0,0-5.26-17.21,29.18,29.18,0,0,0-1.77-2.37,30.76,30.76,0,0,0-43.33-4.17,29.39,29.39,0,0,0-2.18,2,30.68,30.68,0,0,0-9,21.76c0,.09,0,.17,0,.25a20.37,20.37,0,0,0-6.9,2.35,20.58,20.58,0,0,0-3,2,20.09,20.09,0,0,0-2.57,2.48A21.38,21.38,0,0,0,1131,463a20.43,20.43,0,0,0-2.53,14.5,21.73,21.73,0,0,0-9.83,5.61,21,21,0,0,0-1.87,2.13,22.14,22.14,0,0,0-1.59,2.36c-.24.41-.46.83-.67,1.26a21,21,0,0,0-1.52,4.05,21.54,21.54,0,0,0,15.14,6.2h91.8v0a20.51,20.51,0,0,0,18.9-14.65h0a20.76,20.76,0,0,0-4.15-3A20.43,20.43,0,0,0,1226.28,479Zm-33.69.94a13.7,13.7,0,1,0-27-3.36,13,13,0,0,0,.18,2.07,16.63,16.63,0,1,1,14.86-29.76,16.46,16.46,0,0,1,6.25-1.23,16.64,16.64,0,0,1,5.69,32.28Z"/><path class="cls-18" d="M1186.9,447.63a16.46,16.46,0,0,0-6.25,1.23,16.63,16.63,0,1,0-14.86,29.76,13,13,0,0,1-.18-2.07,13.71,13.71,0,1,1,27,3.36,16.64,16.64,0,0,0-5.69-32.28Z"/><path d="M1089.07,481.31a22.58,22.58,0,0,0-18.68-22.17,22.6,22.6,0,0,0,.32-3.75,22.36,22.36,0,0,0-20-22.36,32.78,32.78,0,0,0-65.48.44,22.64,22.64,0,0,0-17.49,21.92,21.76,21.76,0,0,0,.15,2.54,23.58,23.58,0,0,0-9.7,38.29v0l.83.81,2.46,2.42.08-.29a23.35,23.35,0,0,0,14,4.64h29.87V556a12.82,12.82,0,0,0,12.8,12.8h7.2a12.82,12.82,0,0,0,12.8-12.8v-52.2h31.13v-.19a22.5,22.5,0,0,0,17.73-13l.18.16.91-3.07h0l.35-1.19,0,0A22.57,22.57,0,0,0,1089.07,481.31Zm-2.85,5.84h0a20.54,20.54,0,0,1-18.9,14.65v0h-31.13V556a10.8,10.8,0,0,1-10.8,10.8h-7.2a10.81,10.81,0,0,1-10.8-10.8v-54.2H975.52a21.54,21.54,0,0,1-15.14-6.2,21,21,0,0,1,1.52-4.05,21,21,0,0,0-1.52,4.05,21.57,21.57,0,0,1,9.72-36.28,20.46,20.46,0,0,1,17.08-24.22c0-.09,0-.17,0-.26a30.78,30.78,0,1,1,61.56,0v0a20.45,20.45,0,0,1,19.22,26,20.49,20.49,0,0,1,18.27,26.28Z"/><path d="M975.86,480.23a20.61,20.61,0,0,1-.39-4A20.61,20.61,0,0,0,975.86,480.23Z"/><path class="cls-20" d="M1007.39,556a10.81,10.81,0,0,0,10.8,10.8h7.2a10.8,10.8,0,0,0,10.8-10.8v-54.2h-28.8Z"/><path class="cls-15" d="M1068,460.87a20.45,20.45,0,0,0-19.22-26v0a30.78,30.78,0,1,0-61.56,0c0,.09,0,.17,0,.26a20.46,20.46,0,0,0-17.08,24.22,21.57,21.57,0,0,0-9.72,36.28,21,21,0,0,1,1.52-4.05c.21-.43.43-.85.67-1.26a22.14,22.14,0,0,1,1.59-2.36,19.83,19.83,0,0,1,1.87-2.12,21.55,21.55,0,0,1,9.83-5.61,20.61,20.61,0,0,1-.39-4,20.33,20.33,0,0,1,5-13.43,20.09,20.09,0,0,1,2.57-2.48,19.86,19.86,0,0,1,3-2,20.35,20.35,0,0,1,6.9-2.34c0-.09,0-.17,0-.26a30.68,30.68,0,0,1,9-21.76,29.39,29.39,0,0,1,2.18-2,30.75,30.75,0,0,1,43.33,4.18c.63.76,1.22,1.55,1.78,2.37a30.68,30.68,0,0,1,5.25,17.2v0a20.56,20.56,0,0,1,14.15,6.17,20.43,20.43,0,0,1,5.83,14.32,20,20,0,0,1-.2,2.8,22,22,0,0,1-.56,2.68,20.37,20.37,0,0,1,12.51,5.4A20.49,20.49,0,0,0,1068,460.87Z"/><path class="cls-14" d="M1073.71,481.75a22,22,0,0,0,.56-2.68,20,20,0,0,0,.2-2.8,20.43,20.43,0,0,0-5.83-14.32,20.46,20.46,0,0,0-14.15-6.17v0a30.68,30.68,0,0,0-5.25-17.2c-.56-.82-1.15-1.61-1.78-2.37a30.75,30.75,0,0,0-43.33-4.18,29.39,29.39,0,0,0-2.18,2,30.68,30.68,0,0,0-9,21.76c0,.09,0,.17,0,.26a20.35,20.35,0,0,0-6.9,2.34,19.86,19.86,0,0,0-3,2,20.74,20.74,0,0,0-4.68,5.37,20.39,20.39,0,0,0-2.92,10.54,20.61,20.61,0,0,0,.39,4,21.55,21.55,0,0,0-9.83,5.61,19.83,19.83,0,0,0-1.87,2.12,22.14,22.14,0,0,0-1.59,2.36c-.24.41-.46.83-.67,1.26a21,21,0,0,0-1.52,4.05,21.54,21.54,0,0,0,15.14,6.2h91.8v0a20.54,20.54,0,0,0,18.9-14.65h0a20.37,20.37,0,0,0-12.51-5.4Zm-33.69.94a13.89,13.89,0,0,0,.43-3.37,13.71,13.71,0,1,0-27.41,0,13,13,0,0,0,.18,2.08,16.64,16.64,0,1,1,14.86-29.77,16.46,16.46,0,0,1,6.25-1.23,16.65,16.65,0,0,1,5.69,32.29Z"/><path class="cls-18" d="M1034.33,450.4a16.46,16.46,0,0,0-6.25,1.23,16.64,16.64,0,1,0-14.86,29.77,13,13,0,0,1-.18-2.08,13.71,13.71,0,1,1,27.41,0,13.89,13.89,0,0,1-.43,3.37,16.65,16.65,0,0,0-5.69-32.29Z"/><path d="M953.92,481.31a22.58,22.58,0,0,0-18.69-22.17,21.6,21.6,0,0,0,.33-3.75,22.37,22.37,0,0,0-20-22.36,32.78,32.78,0,0,0-65.48.44,22.63,22.63,0,0,0-17.49,21.92,24.17,24.17,0,0,0,.14,2.54A23.57,23.57,0,0,0,823,496.22v0l.82.81,2.47,2.42.07-.29a23.39,23.39,0,0,0,14,4.64h29.88V556a12.82,12.82,0,0,0,12.8,12.8h7.2A12.82,12.82,0,0,0,903,556v-52.2h31.12v-.19a22.47,22.47,0,0,0,17.73-13l.18.16.92-3.07h0l.35-1.19,0,0A22.58,22.58,0,0,0,953.92,481.31Zm-2.85,5.84h0a20.55,20.55,0,0,1-18.91,14.65v0H901V556a10.81,10.81,0,0,1-10.8,10.8H883a10.8,10.8,0,0,1-10.8-10.8v-54.2H840.36a21.5,21.5,0,0,1-15.13-6.2,21.6,21.6,0,0,1,1.51-4.05,21.6,21.6,0,0,0-1.51,4.05A21.56,21.56,0,0,1,835,459.35,20.47,20.47,0,0,1,852,435.13v-.26a30.78,30.78,0,0,1,61.56,0v0a20.45,20.45,0,0,1,19.22,26,20.49,20.49,0,0,1,18.27,26.28Z"/><path d="M840.71,480.23a20.61,20.61,0,0,1-.39-4A20.61,20.61,0,0,0,840.71,480.23Z"/><path class="cls-20" d="M872.24,556a10.8,10.8,0,0,0,10.8,10.8h7.2A10.81,10.81,0,0,0,901,556v-54.2h-28.8Z"/><path class="cls-15" d="M932.8,460.87a20.45,20.45,0,0,0-19.22-26v0a30.78,30.78,0,0,0-61.56,0v.26A20.47,20.47,0,0,0,835,459.35a21.56,21.56,0,0,0-9.72,36.28,21.6,21.6,0,0,1,1.51-4.05c.21-.43.44-.85.68-1.26A20.65,20.65,0,0,1,829,488a21.09,21.09,0,0,1,1.88-2.12,21.45,21.45,0,0,1,9.83-5.61,20.61,20.61,0,0,1-.39-4,20.45,20.45,0,0,1,5-13.43,21.49,21.49,0,0,1,2.57-2.48,20,20,0,0,1,3-2,20.3,20.3,0,0,1,6.89-2.34v-.26a30.67,30.67,0,0,1,9-21.76c.7-.7,1.43-1.36,2.19-2a30.83,30.83,0,0,1,27.27-6.06,31.35,31.35,0,0,1,4.29,1.45,31,31,0,0,1,11.77,8.79,29.18,29.18,0,0,1,1.77,2.37,30.61,30.61,0,0,1,5.26,17.2v0a21,21,0,0,1,6,1,20.53,20.53,0,0,1,14,19.45,20,20,0,0,1-.2,2.8,22,22,0,0,1-.56,2.68,20.46,20.46,0,0,1,12.51,5.4,20.49,20.49,0,0,0-18.27-26.28Z"/><path class="cls-14" d="M938.56,481.75a22,22,0,0,0,.56-2.68,20,20,0,0,0,.2-2.8,20.6,20.6,0,0,0-14-19.45,21,21,0,0,0-6-1v0a30.61,30.61,0,0,0-5.26-17.2,29.18,29.18,0,0,0-1.77-2.37,31,31,0,0,0-11.77-8.79,31.35,31.35,0,0,0-4.29-1.45A30.74,30.74,0,0,0,869,432c-.76.63-1.49,1.29-2.19,2a30.67,30.67,0,0,0-9,21.76V456a20.3,20.3,0,0,0-6.89,2.34,20,20,0,0,0-3,2,21.49,21.49,0,0,0-2.57,2.48,20.45,20.45,0,0,0-5,13.43,20.61,20.61,0,0,0,.39,4,21.45,21.45,0,0,0-9.83,5.61A21.09,21.09,0,0,0,829,488a20.65,20.65,0,0,0-1.58,2.36c-.24.41-.47.83-.68,1.26a21.6,21.6,0,0,0-1.51,4.05,21.5,21.5,0,0,0,15.13,6.2h91.8v0a20.55,20.55,0,0,0,18.91-14.65h0a20.46,20.46,0,0,0-12.51-5.4Zm-33.7.94a13.42,13.42,0,0,0,.44-3.37,13.71,13.71,0,1,0-27.41,0,14.24,14.24,0,0,0,.17,2.08,16.64,16.64,0,1,1,14.86-29.77,16.64,16.64,0,1,1,11.94,31.06Z"/><path class="cls-18" d="M899.18,450.4a16.51,16.51,0,0,0-6.26,1.23,16.64,16.64,0,1,0-14.86,29.77,14.24,14.24,0,0,1-.17-2.08,13.71,13.71,0,1,1,27.41,0,13.42,13.42,0,0,1-.44,3.37,16.64,16.64,0,0,0-5.68-32.29Z"/><rect class="cls-21" x="866.91" y="431.47" width="14.82" height="25.79" rx="7.41"/><path class="cls-6" d="M876.89,455.77h-.61a5,5,0,0,1-2.87-.94,5.38,5.38,0,0,1-2-3.91v-3.51l3.06-2.9-3.07-4.22a8.8,8.8,0,0,1,0-2.52,5.66,5.66,0,0,1,1.42-3.42,4.83,4.83,0,0,1,3.43-1.42h.61a4.84,4.84,0,0,1,4.84,4.84v13.15A4.85,4.85,0,0,1,876.89,455.77Z"/><rect class="cls-21" x="891.55" y="431.47" width="14.82" height="25.79" rx="7.41"/><path class="cls-6" d="M901.52,455.77h-.6a4.94,4.94,0,0,1-2.87-.94,5.38,5.38,0,0,1-2-3.91v-.41c0-1.35,0-2.41,0-3.1l3.06-2.9-3.07-4.22a8.8,8.8,0,0,1,0-2.52,5.66,5.66,0,0,1,1.42-3.42,4.83,4.83,0,0,1,3.43-1.42h.6a4.85,4.85,0,0,1,4.85,4.84v13.15A4.85,4.85,0,0,1,901.52,455.77Z"/><rect class="cls-21" x="998.2" y="431.47" width="14.82" height="25.79" rx="7.41"/><path class="cls-6" d="M1008.18,455.77h-.61a5,5,0,0,1-2.87-.94,5.35,5.35,0,0,1-2-3.91,3.06,3.06,0,0,1,0-.41c0-1.35,0-2.41,0-3.1l3-2.9-3.07-4.22a8.86,8.86,0,0,1,0-2.52,5.65,5.65,0,0,1,1.41-3.42,4.83,4.83,0,0,1,3.43-1.42h.61a4.84,4.84,0,0,1,4.84,4.84v13.15A4.85,4.85,0,0,1,1008.18,455.77Z"/><rect class="cls-21" x="1022.84" y="431.47" width="14.82" height="25.79" rx="7.41"/><path class="cls-6" d="M1032.82,455.77h-.61a5,5,0,0,1-2.87-.94,5.38,5.38,0,0,1-2-3.91v-3.51l3.06-2.9-3.07-4.22a8.8,8.8,0,0,1,0-2.52,5.66,5.66,0,0,1,1.42-3.42,4.83,4.83,0,0,1,3.43-1.42h.61a4.84,4.84,0,0,1,4.84,4.84v13.15A4.85,4.85,0,0,1,1032.82,455.77Z"/><rect class="cls-21" x="1150.77" y="428.69" width="14.82" height="25.79" rx="7.41"/><path class="cls-6" d="M1160.75,453h-.61a4.88,4.88,0,0,1-2.87-.94,5.32,5.32,0,0,1-2-3.9,3.06,3.06,0,0,1,0-.41c0-1.35,0-2.41,0-3.11l3-2.89-3.07-4.22a8.86,8.86,0,0,1,0-2.52,5.65,5.65,0,0,1,1.41-3.42,4.83,4.83,0,0,1,3.43-1.42h.61a4.84,4.84,0,0,1,4.84,4.84v13.15A4.84,4.84,0,0,1,1160.75,453Z"/><rect class="cls-21" x="1175.41" y="428.69" width="14.82" height="25.79" rx="7.41"/><path class="cls-6" d="M1185.39,453h-.61a4.88,4.88,0,0,1-2.87-.94,5.35,5.35,0,0,1-2-3.9v-3.52l3.06-2.89-3.07-4.22a8.8,8.8,0,0,1,0-2.52,5.66,5.66,0,0,1,1.42-3.42,4.83,4.83,0,0,1,3.43-1.42h.61a4.84,4.84,0,0,1,4.84,4.84v13.15A4.84,4.84,0,0,1,1185.39,453Z"/><rect class="cls-21" x="1322.25" y="431.47" width="14.82" height="25.79" rx="7.41" transform="translate(2659.32 888.73) rotate(180)"/><path class="cls-6" d="M1327.09,455.77h.61a5,5,0,0,0,2.87-.94,5.35,5.35,0,0,0,2-3.91v-.41c0-1.35,0-2.41,0-3.1l-3-2.9,3.06-4.22a8.45,8.45,0,0,0,0-2.52,5.66,5.66,0,0,0-1.42-3.42,4.81,4.81,0,0,0-3.42-1.42h-.61a4.84,4.84,0,0,0-4.84,4.84v13.15A4.84,4.84,0,0,0,1327.09,455.77Z"/><rect class="cls-21" x="1297.61" y="431.47" width="14.82" height="25.79" rx="7.41" transform="translate(2610.04 888.73) rotate(-180)"/><path class="cls-6" d="M1302.45,455.77h.61a5,5,0,0,0,2.87-.94,5.35,5.35,0,0,0,2-3.91v-.41c0-1.35,0-2.41,0-3.1l-3.05-2.9,3.07-4.22a8.86,8.86,0,0,0,0-2.52,5.66,5.66,0,0,0-1.42-3.42,4.79,4.79,0,0,0-3.42-1.42h-.61a4.84,4.84,0,0,0-4.84,4.84v13.15A4.85,4.85,0,0,0,1302.45,455.77Z"/></g></g></svg>